# AST/ASF file generated using VICON BodyLanguage
# -----------------------------------------------
:version 1.10
:name VICON
:units
  mass 1.0
  length 0.45
  angle deg
:documentation
   .ast/.asf automatically generated from VICON data using
   VICON BodyBuilder and BodyLanguage model FoxedUp or BRILLIANT.MOD
:root
   order TX TY TZ RX RY RZ
   axis XYZ
   position 0 0 0  
   orientation 0 0 0 
:bonedata
  begin
     id 1 
     name lhipjoint
     direction 0.567725 -0.736092 0.368589 
     length 2.42353 
     axis 0 0 0  XYZ
  end
  begin
     id 2 
     name lfemur
     direction 0.34202 -0.939693 0  
     length 7.24894  
     axis 0 0 20  XYZ
    dof rx ry rz
    limits (-160.0 20.0)
           (-70.0 70.0)
           (-60.0 70.0)
  end
  begin
     id 3 
     name ltibia
     direction 0.34202 -0.939693 0   
     length 7.6997   
     axis 0 0 20   XYZ
    dof rx
    limits (-10.0 170.0)
  end
  begin
     id 4 
     name lfoot
     direction 0.100767 -0.276854 0.955614   
     length 2.37556   
     axis -90 7.62852e-016 20   XYZ
    dof rx rz
    limits (-45.0 90.0)
           (-70.0 20.0)
  end
  begin
     id 5 
     name ltoes
     direction 1.53592e-011 -4.21894e-011 1   
     length 1.18363   
     axis -90 7.62852e-016 20   XYZ
    dof rx
    limits (-90.0 20.0)
  end
  begin
     id 6 
     name rhipjoint
     direction -0.556459 -0.742938 0.372017   
     length 2.4012  
     axis 0 0 0  XYZ 
  end
  begin
     id 7 
     name rfemur
     direction -0.34202 -0.939693 0   
     length 7.5119   
     axis 0 0 -20   XYZ
    dof rx ry rz
    limits (-160.0 20.0)
           (-70.0 70.0)
           (-70.0 60.0)
  end
  begin
     id 8 
     name rtibia
     direction -0.34202 -0.939693 0   
     length 7.50155   
     axis 0 0 -20   XYZ
    dof rx
    limits (-10.0 170.0)
 end
 begin
     id 9 
     name rfoot
     direction -0.118427 -0.325376 0.938139   
     length 2.32487  
     axis -90 -7.62852e-016 -20   XYZ
    dof rx rz
    limits (-45.0 90.0)
           (-20.0 70.0)
  end
  begin
     id 10 
     name rtoes
     direction -1.53525e-011 -4.21868e-011 1   
     length 1.15233   
     axis -90 -7.62852e-016 -20   XYZ
    dof rx
    limits (-90.0 20.0)
  end
  begin
     id 11 
     name lowerback
     direction 0.0287568 0.999577 -0.00434502   
     length 2.15243   
     axis 0 0 0   XYZ
    dof rx ry rz
    limits (-20.0 45.0)
           (-30.0 30.0)
           (-30.0 30.0)
  end
  begin
     id 12 
     name upperback
     direction 0.0294009 0.99956 0.00404628   
     length 2.15427   
     axis 0 0 0   XYZ
    dof rx ry rz
    limits (-20.0 45.0)
           (-30.0 30.0)
           (-30.0 30.0)
  end
  begin
     id 13 
     name thorax
     direction 0.0151014 0.999868 0.0059419   
     length 2.14898   
     axis 0 0 0   XYZ
    dof rx ry rz
    limits (-20.0 45.0)
           (-30.0 30.0)
           (-30.0 30.0)
  end
  begin
     id 14 
     name lowerneck
     direction -0.0249197 0.989906 0.139515   
     length 1.6861   
     axis 0 0 0   XYZ
    dof rx ry rz
    limits (-20.0 45.0)
           (-30.0 30.0)
           (-30.0 30.0)
  end
  begin
     id 15 
     name upperneck
     direction 0.0438463 0.988795 -0.142693   
     length 1.71276   
     axis 0 0 0   XYZ
    dof rx ry rz
    limits (-20.0 45.0)
           (-30.0 30.0)
           (-30.0 30.0)
  end
  begin
     id 16
     name head
     direction 0.0148499 0.997845 -0.0639186  
     length 1.7209  
     axis 0 0 0   XYZ
    dof rx ry rz
    limits (-20.0 45.0)
           (-30.0 30.0)
           (-30.0 30.0)
  end
  begin
     id 17 
     name lclavicle
     direction 0.940298 0.323464 -0.105876  
     length 3.9048  
     axis 0 0 0   XYZ
    dof ry rz
    limits (-20.0 10.0)
           (0.0 20.0)
  end
  begin
     id 18 
     name lhumerus
     direction 1 -4.48954e-011 -4.9675e-028   
     length 4.6851   
     axis 180 -30 -90   XYZ
    dof rx ry rz
    limits (-60.0 90.0)
           (-90.0 90.0)
           (-90.0 90.0)
  end
  begin
     id 19
     name lradius
     direction 1 -4.48992e-011 -1.03359e-026   
     length 3.39626   
     axis 180 -30 -90   XYZ
    dof rx
    limits (-10.0 170.0)
  end
  begin
     id 20
     name lwrist
     direction 1 -4.48906e-011 -1.67336e-026   
     length 1.69813   
     axis 9.90442e-015 90 90   XYZ
    dof ry
    limits (-180.0 0.0)
 end
  begin
     id 21 
     name lhand
     direction 1 -4.49006e-011 -3.34673e-026   
     length 0.486078   
     axis 2.1355e-014 90 90   XYZ
    dof rx rz
    limits (-90.0 90.0)
           (-45.0 45.0)
  end
  begin
     id 22 
     name lfingers
     direction 1 -4.48992e-011 -6.69345e-026   
     length 0.391889   
     axis 4.27099e-014 90 90   XYZ
    dof rx
    limits (0.0 90.0)
  end
  begin
     id 23
     name lthumb
     direction 0.707107 -6.34926e-011 0.707107   
     length 0.562676   
     axis -90 45 2.85299e-015   XYZ
    dof rx rz
    limits (-45.0 45.0)
           (-45.0 45.0)
  end
  begin
     id 24 
     name rclavicle
     direction -0.882459 0.414895 -0.221648   
     length 3.44646  
     axis 0 0 0   XYZ 
    dof ry rz
    limits (-10.0 20.0)
           (-20.0 0.0)
  end
  begin
     id 25 
     name rhumerus
     direction -1 -4.48962e-011 -2.37984e-027  
     length 5.55576   
     axis 180 30 90   XYZ
    dof rx ry rz
    limits (-90.0 60.0)
           (-90.0 90.0)
           (-90.0 90.0)
  end
  begin
     id 26 
     name rradius
     direction -1 -4.48982e-011 -6.86791e-027   
     length 3.32774   
     axis 180 30 90   XYZ
    dof rx
    limits (-10.0 170.0)
  end
  begin
     id 27 
     name rwrist
     direction -1 -4.48961e-011 -1.67336e-026   
     length 1.66387   
     axis 9.90442e-015 -90 -90   XYZ
    dof ry
    limits (-180.0 0.0)
  end
  begin
     id 28
     name rhand
     direction -1 -4.4897e-011 -3.34673e-026   
     length 0.507628   
     axis 2.1355e-014 -90 -90   XYZ
    dof rx rz
    limits (-90.0 90.0)
           (-45.0 45.0)
  end
  begin
     id 29
     name rfingers
     direction -1 -4.48854e-011 -6.69345e-026   
     length 0.409263   
     axis 4.27099e-014 -90 -90   XYZ
    dof rx
    limits (0.0 90.0)
  end
  begin
     id 30
     name rthumb
     direction -0.707107 -6.34913e-011 0.707107   
     length 0.587622   
     axis -90 -45 -2.85299e-015   XYZ
    dof rx rz
    limits (-45.0 45.0)
           (-45.0 45.0)
  end
:hierarchy
  begin
    root lhipjoint rhipjoint lowerback
    lhipjoint lfemur
    lfemur ltibia
    ltibia lfoot
    lfoot ltoes
    rhipjoint rfemur
    rfemur rtibia
    rtibia rfoot
    rfoot rtoes
    lowerback upperback
    upperback thorax
    thorax lowerneck lclavicle rclavicle
    lowerneck upperneck
    upperneck head
    lclavicle lhumerus
    lhumerus lradius
    lradius lwrist
    lwrist lhand lthumb
    lhand lfingers
    rclavicle rhumerus
    rhumerus rradius
    rradius rwrist
    rwrist rhand rthumb
    rhand rfingers
  end

#!OML:ASF E:\motion texture\Top Level 1\Subject 1\Session 1\male.ASF
:FULLY-SPECIFIED
:DEGREES
48
root 44.3547 17.5984 4.63479 97.0986 -83.4249 -89.6213
lowerback -1.26645 1.37106 2.7999
upperback -1.36623 1.74452 3.97455
thorax -0.731609 0.832498 2.52287
lowerneck -17.8623 -0.689031 -6.83407
upperneck 14.9619 -0.143877 5.19775
head 7.54697 0.0351525 2.82138
rclavicle 9.69075e-016 -2.14687e-014
rhumerus -31.2966 1.70317 -81.3099
rradius 32.9087
rwrist 10.9024
rhand -13.6671 -26.043
rfingers 7.12502
rthumb 12.4501 -55.6522
lclavicle 9.69075e-016 -2.14687e-014
lhumerus -34.483 14.5788 83.4749
lradius 33.0105
lwrist -21.5287
lhand -11.7593 22.5618
lfingers 7.12502
lthumb 14.2889 52.0502
rfemur -7.32778 1.26702 30.7127
rtibia 18.8147
rfoot -16.4917 -12.0563
rtoes 12.4459
lfemur -29.1189 -0.140702 -10.0152
ltibia 47.5482
lfoot -12.1977 2.40324
ltoes -13.0841
49
root 44.32 17.5943 4.62466 97.6228 -83.3358 -90.1362
lowerback -1.19274 1.40891 2.88741
upperback -1.28897 1.79536 3.95846
thorax -0.691564 0.857673 2.4567
lowerneck -17.8379 -0.679183 -6.85668
upperneck 14.7964 -0.127505 5.23356
head 7.4872 0.0469759 2.83625
rclavicle -1.06847e-014 -3.77691e-014
rhumerus -31.1431 2.42081 -81.6405
rradius 33.6271
rwrist 10.8092
rhand -13.708 -26.0582
rfingers 7.12502
rthumb 12.4106 -55.6698
lclavicle -1.06847e-014 -3.77691e-014
lhumerus -34.3894 14.1241 83.8559
lradius 33.7082
lwrist -20.9583
lhand -11.8994 22.6384
lfingers 7.12502
lthumb 14.1539 52.1363
rfemur -7.16159 1.2934 30.8577
rtibia 18.7328
rfoot -16.5828 -12.0234
rtoes 12.5585
lfemur -29.8969 0.0440338 -9.88366
ltibia 48.1071
lfoot -12.0063 2.58232
ltoes -13.4499
50
root 44.2836 17.5904 4.61481 98.174 -83.2517 -90.6703
lowerback -1.12482 1.44739 2.9693
upperback -1.21636 1.84704 3.93935
thorax -0.652952 0.883387 2.39065
lowerneck -17.8145 -0.669537 -6.87889
upperneck 14.6324 -0.111016 5.26678
head 7.42818 0.0585846 2.8502
rclavicle -5.36719e-015 -5.4467e-014
rhumerus -30.9787 3.13303 -81.9606
rradius 34.3593
rwrist 10.7342
rhand -13.7473 -26.0684
rfingers 7.12502
rthumb 12.3728 -55.6823
lclavicle -5.36719e-015 -5.4467e-014
lhumerus -34.2984 13.6696 84.2338
lradius 34.4206
lwrist -20.4028
lhand -12.0358 22.7126
lfingers 7.12502
lthumb 14.0225 52.2196
rfemur -6.99183 1.32306 30.994
rtibia 18.6396
rfoot -16.674 -11.9907
rtoes 12.6799
lfemur -30.6519 0.224878 -9.7551
ltibia 48.5523
lfoot -11.8025 2.76673
ltoes -13.7825
51
root 44.2455 17.5866 4.60528 98.7426 -83.1736 -91.2147
lowerback -1.06161 1.48595 3.04487
upperback -1.14895 1.89896 3.91698
thorax -0.616975 0.909324 2.32484
lowerneck -17.7909 -0.660275 -6.90425
upperneck 14.47 -0.0947229 5.30224
head 7.36974 0.0700772 2.8654
rclavicle -1.30701e-014 -4.53229e-014
rhumerus -30.8061 3.84162 -82.2705
rradius 35.1054
rwrist 10.6783
rhand -13.7912 -26.0639
rfingers 7.12502
rthumb 12.3304 -55.6803
lclavicle -1.30701e-014 -4.53229e-014
lhumerus -34.2102 13.2162 84.6075
lradius 35.1451
lwrist -19.8641
lhand -12.1659 22.7857
lfingers 7.12502
lthumb 13.8971 52.3014
rfemur -6.81783 1.35536 31.1209
rtibia 18.536
rfoot -16.7664 -11.9602
rtoes 12.7995
lfemur -31.3796 0.400588 -9.63032
ltibia 48.8779
lfoot -11.5848 2.9556
ltoes -14.0776
52
root 44.2055 17.583 4.59606 99.3365 -83.1006 -91.7758
lowerback -1.00447 1.52479 3.11461
upperback -1.08701 1.95127 3.8917
thorax -0.583146 0.935543 2.25938
lowerneck -17.7691 -0.651168 -6.92876
upperneck 14.3102 -0.0783116 5.33484
head 7.31251 0.0813564 2.87953
rclavicle 1.20762e-014 -1.27222e-014
rhumerus -30.6247 4.54667 -82.5699
rradius 35.8664
rwrist 10.6409
rhand -13.8363 -26.0483
rfingers 7.12502
rthumb 12.287 -55.6673
lclavicle 1.20762e-014 -1.27222e-014
lhumerus -34.1234 12.765 84.9769
lradius 35.8803
lwrist -19.343
lhand -12.2885 22.8546
lfingers 7.12502
lthumb 13.779 52.3783
rfemur -6.64268 1.39012 31.2388
rtibia 18.4237
rfoot -16.8606 -11.9299
rtoes 12.9187
lfemur -32.0802 0.571057 -9.50734
ltibia 49.0818
lfoot -11.3551 3.14724
ltoes -14.3284
53
root 44.1637 17.5794 4.58722 99.9546 -83.0325 -92.3532
lowerback -0.953544 1.56359 3.17946
upperback -1.03032 2.00354 3.86335
thorax -0.551102 0.961818 2.19361
lowerneck -17.7471 -0.641781 -6.95316
upperneck 14.1518 -0.0613577 5.36599
head 7.25575 0.0927146 2.89322
rclavicle 8.99501e-015 2.70347e-014
rhumerus -30.4327 5.24752 -82.8588
rradius 36.6389
rwrist 10.6209
rhand -13.8867 -26.0245
rfingers 7.12502
rthumb 12.2383 -55.6464
lclavicle 8.99501e-015 2.70347e-014
lhumerus -34.0389 12.3145 85.3419
lradius 36.6256
lwrist -18.8405
lhand -12.4084 22.9196
lfingers 7.12502
lthumb 13.6634 52.4511
rfemur -6.46461 1.4266 31.3476
rtibia 18.3033
rfoot -16.9583 -11.8998
rtoes 13.0397
lfemur -32.7493 0.734562 -9.3856
ltibia 49.1606
lfoot -11.1153 3.34065
ltoes -14.5303
54
root 44.1201 17.5758 4.57871 100.59 -82.9715 -92.9401
lowerback -0.908529 1.60186 3.23619
upperback -0.979413 2.05518 3.83162
thorax -0.521668 0.987875 2.12897
lowerneck -17.7275 -0.631845 -6.97923
upperneck 13.9983 -0.0435612 5.399
head 7.20104 0.104503 2.90796
rclavicle 3.62782e-015 2.5842e-014
rhumerus -30.2319 5.94509 -83.1368
rradius 37.4254
rwrist 10.6169
rhand -13.9392 -25.9964
rfingers 7.12502
rthumb 12.1877 -55.6213
lclavicle 3.62782e-015 2.5842e-014
lhumerus -33.9563 11.8663 85.7015
lradius 37.3791
lwrist -18.3588
lhand -12.5223 22.9828
lfingers 7.12502
lthumb 13.5537 52.5216
rfemur -6.28505 1.46455 31.4448
rtibia 18.1754
rfoot -17.0589 -11.8702
rtoes 13.1584
lfemur -33.3859 0.88908 -9.26689
ltibia 49.1126
lfoot -10.8672 3.53428
ltoes -14.6781
55
root 44.0745 17.5721 4.57054 101.251 -82.9136 -93.5423
lowerback -0.870647 1.64027 3.28829
upperback -0.934164 2.10694 3.79771
thorax -0.493976 1.01403 2.06481
lowerneck -17.704 -0.623109 -6.99917
upperneck 13.8411 -0.0270568 5.42021
head 7.14461 0.114867 2.91754
rclavicle 1.37658e-014 6.40087e-014
rhumerus -30.0218 6.63939 -83.403
rradius 38.2235
rwrist 10.6308
rhand -13.999 -25.955
rfingers 7.12502
rthumb 12.1301 -55.5833
lclavicle 1.37658e-014 6.40087e-014
lhumerus -33.8728 11.4213 86.0564
lradius 38.1375
lwrist -17.8998
lhand -12.6324 23.0384
lfingers 7.12502
lthumb 13.4476 52.5843
rfemur -6.10538 1.50442 31.5351
rtibia 18.041
rfoot -17.1627 -11.8407
rtoes 13.2731
lfemur -33.9902 1.03588 -9.1459
ltibia 48.9388
lfoot -10.6157 3.7269
ltoes -14.7697
56
root 44.027 17.5683 4.56274 101.913 -82.8616 -94.1381
lowerback -0.840328 1.67801 3.33297
upperback -0.893769 2.15772 3.76128
thorax -0.467041 1.03979 2.00236
lowerneck -17.6863 -0.613898 -7.02339
upperneck 13.6913 -0.00980853 5.44794
head 7.09158 0.125932 2.93019
rclavicle 5.41688e-015 -1.70955e-014
rhumerus -29.8021 7.32888 -83.6561
rradius 39.0336
rwrist 10.6628
rhand -14.067 -25.8993
rfingers 7.12502
rthumb 12.0645 -55.5316
lclavicle 5.41688e-015 -1.70955e-014
lhumerus -33.7884 10.9764 86.4078
lradius 38.9016
lwrist -17.4629
lhand -12.7371 23.0971
lfingers 7.12502
lthumb 13.3466 52.6497
rfemur -5.92376 1.54128 31.6148
rtibia 17.8988
rfoot -17.2703 -11.8112
rtoes 13.3838
lfemur -34.5598 1.17008 -9.0252
ltibia 48.6396
lfoot -10.3586 3.91696
ltoes -14.8338
57
root 43.9775 17.5643 4.5553 102.595 -82.8136 -94.7462
lowerback -0.815221 1.71497 3.37214
upperback -0.859554 2.20753 3.72264
thorax -0.443501 1.06508 1.94078
lowerneck -17.6644 -0.605313 -7.04267
upperneck 13.5387 0.00677902 5.46601
head 7.03704 0.136003 2.93867
rclavicle -1.22253e-014 1.59028e-015
rhumerus -29.5712 8.01512 -83.8981
rradius 39.8515
rwrist 10.7099
rhand -14.141 -25.8306
rfingers 7.12502
rthumb 11.9931 -55.467
lclavicle -1.22253e-014 1.59028e-015
lhumerus -33.7041 10.5355 86.7527
lradius 39.668
lwrist -17.0489
lhand -12.8355 23.1467
lfingers 7.12502
lthumb 13.2518 52.7054
rfemur -5.74031 1.57993 31.6865
rtibia 17.7516
rfoot -17.3821 -11.7822
rtoes 13.4912
lfemur -35.0918 1.29256 -8.90135
ltibia 48.2145
lfoot -10.1005 4.10358
ltoes -14.8374
58
root 43.9259 17.5601 4.54824 103.299 -82.7681 -95.369
lowerback -0.795956 1.75136 3.40743
upperback -0.831403 2.25658 3.68211
thorax -0.422848 1.09 1.87953
lowerneck -17.6465 -0.595352 -7.06722
upperneck 13.3943 0.0252762 5.4915
head 6.98578 0.147338 2.95082
rclavicle 6.85807e-015 -2.34566e-014
rhumerus -29.3278 8.69842 -84.1295
rradius 40.6758
rwrist 10.7748
rhand -14.2256 -25.7589
rfingers 7.12502
rthumb 11.9116 -55.4
lclavicle 6.85807e-015 -2.34566e-014
lhumerus -33.6197 10.0964 87.0921
lradius 40.4369
lwrist -16.6572
lhand -12.9302 23.199
lfingers 7.12502
lthumb 13.1605 52.7637
rfemur -5.55666 1.61902 31.7513
rtibia 17.6019
rfoot -17.4982 -11.7525
rtoes 13.5928
lfemur -35.5869 1.40398 -8.7731
ltibia 47.6692
lfoot -9.84545 4.28481
ltoes -14.7857
59
root 43.8726 17.5554 4.54145 103.967 -82.7261 -95.9449
lowerback -0.781482 1.7849 3.43708
upperback -0.810136 2.30195 3.64054
thorax -0.406602 1.11307 1.82037
lowerneck -17.6302 -0.58587 -7.09252
upperneck 13.2519 0.0433089 5.51716
head 6.93554 0.158407 2.96312
rclavicle -9.93923e-017 4.09496e-014
rhumerus -29.0725 9.3796 -84.3487
rradius 41.5077
rwrist 10.854
rhand -14.3157 -25.6847
rfingers 7.12502
rthumb 11.8247 -55.3309
lclavicle -9.93923e-017 4.09496e-014
lhumerus -33.5326 9.65948 87.4264
lradius 41.2058
lwrist -16.2881
lhand -13.0212 23.2425
lfingers 7.12502
lthumb 13.0728 52.8128
rfemur -5.37635 1.65574 31.8106
rtibia 17.4499
rfoot -17.6195 -11.7262
rtoes 13.6943
lfemur -36.053 1.49828 -8.63965
ltibia 47.0129
lfoot -9.59161 4.45713
ltoes -14.6851
60
root 43.8171 17.5504 4.53508 104.666 -82.6876 -96.546
lowerback -0.774068 1.81826 3.46133
upperback -0.793455 2.34693 3.59706
thorax -0.391131 1.13598 1.76244
lowerneck -17.6125 -0.576612 -7.11396
upperneck 13.1103 0.0612213 5.53521
head 6.88535 0.168882 2.97224
rclavicle -1.60022e-014 -2.5842e-014
rhumerus -28.8096 10.0596 -84.5556
rradius 42.3512
rwrist 10.9451
rhand -14.4111 -25.6098
rfingers 7.12502
rthumb 11.7326 -55.2612
lclavicle -1.60022e-014 -2.5842e-014
lhumerus -33.4426 9.22423 87.7553
lradius 41.9742
lwrist -15.9434
lhand -13.1059 23.2909
lfingers 7.12502
lthumb 12.9911 52.8664
rfemur -5.19489 1.69208 31.8616
rtibia 17.2983
rfoot -17.7448 -11.6994
rtoes 13.7868
lfemur -36.4801 1.57982 -8.50212
ltibia 46.2471
lfoot -9.33615 4.62397
ltoes -14.5417
61
root 43.7595 17.545 4.52907 105.367 -82.6503 -97.1431
lowerback -0.772092 1.85061 3.48169
upperback -0.782118 2.39053 3.55282
thorax -0.378115 1.15818 1.706
lowerneck -17.5979 -0.56665 -7.13889
upperneck 12.9736 0.0799795 5.55925
head 6.8373 0.180102 2.98409
rclavicle -8.00108e-015 5.96354e-015
rhumerus -28.5351 10.7362 -84.7498
rradius 43.2019
rwrist 11.047
rhand -14.5196 -25.524
rfingers 7.12502
rthumb 11.6281 -55.1814
lclavicle -8.00108e-015 5.96354e-015
lhumerus -33.3493 8.7893 88.0791
lradius 42.7414
lwrist -15.622
lhand -13.1851 23.331
lfingers 7.12502
lthumb 12.9148 52.9114
rfemur -5.01292 1.72981 31.9084
rtibia 17.1455
rfoot -17.8743 -11.6751
rtoes 13.8779
lfemur -36.8737 1.64792 -8.35699
ltibia 45.3826
lfoot -9.08015 4.78215
ltoes -14.3542
62
root 43.6998 17.539 4.52344 106.073 -82.6151 -97.7381
lowerback -0.775261 1.88144 3.49786
upperback -0.776144 2.43211 3.50735
thorax -0.367737 1.17936 1.65072
lowerneck -17.5827 -0.556509 -7.16167
upperneck 12.8379 0.0989622 5.57959
head 6.78948 0.191172 2.99438
rclavicle -1.47349e-014 -5.56597e-015
rhumerus -28.2464 11.4109 -84.9326
rradius 44.0549
rwrist 11.1629
rhand -14.6401 -25.4232
rfingers 7.12502
rthumb 11.5119 -55.0871
lclavicle -1.47349e-014 -5.56597e-015
lhumerus -33.252 8.35537 88.3968
lradius 43.506
lwrist -15.3253
lhand -13.2609 23.3602
lfingers 7.12502
lthumb 12.8417 52.9451
rfemur -4.83136 1.76655 31.9497
rtibia 16.9943
rfoot -18.0085 -11.6521
rtoes 13.9624
lfemur -37.2342 1.70156 -8.20499
ltibia 44.4274
lfoot -8.8224 4.93217
ltoes -14.1305
